<?xml version="1.0" encoding="UTF-8"?>
<svg height="128px" viewBox="0 0 128 128" width="128px" xmlns="http://www.w3.org/2000/svg" xmlns:xlink="http://www.w3.org/1999/xlink">
    <defs>
        <filter id="a" height="100%" width="100%" x="0%" y="0%">
            <feColorMatrix in="SourceGraphic" type="matrix" values="0 0 0 0 1 0 0 0 0 1 0 0 0 0 1 0 0 0 1 0"/>
        </filter>
        <mask id="b">
            <g filter="url(#a)">
                <rect fill-opacity="0.9534" height="128" width="128"/>
            </g>
        </mask>
        <mask id="c">
            <g filter="url(#a)">
                <rect fill-opacity="0.9534" height="128" width="128"/>
            </g>
        </mask>
        <clipPath id="d">
            <rect height="152" width="192"/>
        </clipPath>
        <g id="e" clip-path="url(#d)">
            <path d="m 30.921875 41.285156 h 84.859375 c 4.457031 0 8.089844 4.351563 8.113281 9.714844 l 0.277344 66.023438 c 0.023437 5.367187 -3.574219 9.714843 -8.03125 9.714843 h -84.855469 c -4.460937 0 -8.09375 -4.347656 -8.113281 -9.714843 l -0.28125 -66.023438 c -0.023437 -5.363281 3.574219 -9.714844 8.03125 -9.714844 z m 0 0" fill="#77767b"/>
        </g>
        <clipPath id="f">
            <rect height="128" width="128"/>
        </clipPath>
        <clipPath id="g">
            <rect height="128" width="128"/>
        </clipPath>
        <mask id="h">
            <g clip-path="url(#g)" filter="url(#a)">
                <g clip-path="url(#f)">
                    <use mask="url(#c)" transform="matrix(1 0 0 1 -8 -16)" xlink:href="#e"/>
                    <path d="m 23.25 194.65625 h 84.855469 c 4.457031 0 8.074219 4.351562 8.074219 9.714844 v 66.023437 c 0 5.367188 -3.617188 9.714844 -8.074219 9.714844 h -84.855469 c -4.460938 0 -8.074219 -4.347656 -8.074219 -9.714844 v -66.023437 c 0 -5.363282 3.613281 -9.714844 8.074219 -9.714844 z m 0 0" fill="#99c1f1" stroke="#000000" stroke-width="1.01441" transform="matrix(1 0 0 1 0 -172)"/>
                    <path d="m 28.074219 108.109375 l 51.96875 -85.453125 h 6.699219 l -51.902344 85.453125 z m 0 0" fill="#ffffff" fill-opacity="0.376276"/>
                    <path d="m 42.144531 108.109375 l 55.460938 -85.453125 l 11.539062 1.394531 l -48.929687 82.6875 z m 0 0" fill="#ffffff" fill-opacity="0.376276"/>
                    <path d="m 20 105.25 c 50.34375 -83.988281 50.34375 -83.988281 50.34375 -83.988281 l 0.773438 2.789062 l -48.929688 82.6875 z m 0 0" fill="#ffffff" fill-opacity="0.376276"/>
                    <path d="m 15.199219 209.945312 h 100.953125 v 17.867188 h -100.953125 z m 0 0" fill="#3d3846" stroke="#000000" stroke-width="0.695606" transform="matrix(1 0 0 1 0 -172)"/>
                    <path d="m 21.957031 244.578125 h 50.117188 v 3.65625 h -51.488281 l -0.09375 -3.671875 z m 0 0" stroke="#000000" stroke-width="1.12456" transform="matrix(1 0 0 1 0 -172)"/>
                    <path d="m 21.679688 254.96875 h 40.652343 v 3.65625 h -41.765625 l -0.074218 -3.667969 z m 0 0" stroke="#000000" stroke-width="1.01284" transform="matrix(1 0 0 1 0 -172)"/>
                    <path d="m -157.455129 103.834422 c 0 5.808138 -4.51489 10.516677 -10.080198 10.516677 c -5.565309 0 -10.076379 -4.708539 -10.076379 -10.516677 c 0 -5.812837 4.51107 -10.521376 10.076379 -10.521376 c 5.565308 0 10.080198 4.708539 10.080198 10.521376 z m 0 0" fill="#ffffff" stroke="#000000" stroke-width="3.34706" transform="matrix(1.022658 0 0 0.831269 267.721938 1.689569)"/>
                    <path d="m -180.434467 102.09574 h 2.601218 c 0.122231 0 0.221543 0.479313 0.221543 1.076103 v 1.320459 c 0 0.596791 -0.099312 1.076103 -0.221543 1.076103 h -2.601218 c -0.122231 0 -0.221543 -0.479312 -0.221543 -1.076103 v -1.320459 c 0 -0.59679 0.099312 -1.076103 0.221543 -1.076103 z m 0 0" stroke="#000000" stroke-width="2.16383" transform="matrix(1.022658 0 0 0.831269 267.721938 1.689569)"/>
                    <path d="m -157.966969 102.09574 h 2.601218 c 0.122231 0 0.221543 0.479313 0.221543 1.076103 v 1.320459 c 0 0.596791 -0.099312 1.076103 -0.221543 1.076103 h -2.601218 c -0.122231 0 -0.221543 -0.479312 -0.221543 -1.076103 v -1.320459 c 0 -0.59679 0.099312 -1.076103 0.221543 -1.076103 z m 0 0" stroke="#000000" stroke-width="2.16383" transform="matrix(1.022658 0 0 0.831269 267.721938 1.689569)"/>
                    <path d="m -169.200718 90.371384 h 2.601218 c 0.122231 0 0.221543 0.484012 0.221543 1.076104 v 1.325157 c 0 0.592092 -0.099312 1.071404 -0.221543 1.071404 h -2.601218 c -0.122231 0 -0.221543 -0.479312 -0.221543 -1.071404 v -1.325157 c 0 -0.592092 0.099312 -1.076104 0.221543 -1.076104 z m 0 0" stroke="#000000" stroke-width="2.16383" transform="matrix(1.022658 0 0 0.831269 267.721938 1.689569)"/>
                    <path d="m -169.200718 113.820096 h 2.601218 c 0.122231 0 0.221543 0.479312 0.221543 1.071404 v 1.325158 c 0 0.592092 -0.099312 1.076103 -0.221543 1.076103 h -2.601218 c -0.122231 0 -0.221543 -0.484011 -0.221543 -1.076103 v -1.325158 c 0 -0.592092 0.099312 -1.071404 0.221543 -1.071404 z m 0 0" stroke="#000000" stroke-width="2.16383" transform="matrix(1.022658 0 0 0.831269 267.721938 1.689569)"/>
                    <path d="m -200.42272 -31.33197 l 2.643164 0.002594 c 0.12139 -0.002865 0.221692 0.475279 0.223569 1.058595 l 0.000045 1.306567 c -0.001272 0.581023 -0.099891 1.056906 -0.224429 1.057477 l -2.640016 -0.000301 c -0.124538 0.000571 -0.224359 -0.471517 -0.223568 -1.058596 l -0.000046 -1.306567 c -0.001876 -0.583316 0.099891 -1.056905 0.221281 -1.059769 z m 0 0" stroke="#000000" stroke-width="2.16471" transform="matrix(0.81817 -0.498714 0.579974 0.68466 267.721938 1.689569)"/>
                    <path d="m -82.539024 -197.630587 l 2.643164 0.002595 c 0.12139 -0.002865 0.224359 0.471516 0.223569 1.058595 l 0.002712 1.302804 c -0.003939 0.584786 -0.102558 1.060668 -0.227096 1.061239 l -2.640016 -0.000301 c -0.124538 0.000571 -0.221692 -0.475279 -0.223568 -1.058595 l -0.000045 -1.306567 c 0.00079 -0.587079 0.099891 -1.056905 0.22128 -1.05977 z m 0 0" stroke="#000000" stroke-width="2.16471" transform="matrix(0.81817 0.498714 0.579974 -0.68466 267.721938 1.689569)"/>
                    <path d="m -68.430756 -186.167247 l 2.642683 -0.003462 c 0.121871 0.003192 0.221692 0.475279 0.220901 1.062358 l 0.002713 1.302805 c -0.000791 0.587079 -0.102559 1.060668 -0.223948 1.063532 l -2.643164 -0.002594 c -0.124539 0.000571 -0.221692 -0.475279 -0.223569 -1.058596 l -0.000045 -1.306567 c 0.000791 -0.587079 0.102558 -1.060667 0.224429 -1.057476 z m 0 0" stroke="#000000" stroke-width="2.16471" transform="matrix(0.81817 0.498714 0.579974 -0.68466 267.721938 1.689569)"/>
                    <path d="m -78.627964 -173.432165 l 2.640016 0.000301 c 0.124538 -0.000571 0.224358 0.471517 0.223568 1.058596 l 0.000045 1.306567 c 0.001877 0.583316 -0.099891 1.056905 -0.224429 1.057476 l -2.640016 -0.000301 c -0.124538 0.000571 -0.221691 -0.475279 -0.223568 -1.058596 l -0.000045 -1.306567 c -0.001877 -0.583316 0.099891 -1.056905 0.224429 -1.057476 z m 0 0" stroke="#000000" stroke-width="2.16471" transform="matrix(0.81817 0.498714 0.579974 -0.68466 267.721938 1.689569)"/>
                    <g>
                        <use x="92.28125" xlink:href="#m" y="91.713514"/>
                        <use x="94.999078" xlink:href="#n" y="91.713514"/>
                    </g>
                    <path d="m 22.18415 345.837766 h 9.912233 v 15.810464 h -9.912233 z m 0 0" fill="#9a9996" stroke="#000000" stroke-width="0.205082" transform="matrix(0.716444 0 0 0.774556 8.977386 -227.11298)"/>
                    <path d="m 37.057951 345.903327 h 9.917685 v 15.810465 h -9.917685 z m 0 0" fill="#9a9996" stroke="#000000" stroke-width="0.205082" transform="matrix(0.716444 0 0 0.774556 8.977386 -227.11298)"/>
                    <path d="m 52.182556 345.837766 h 9.917685 v 15.810464 h -9.917685 z m 0 0" fill="#9a9996" stroke="#000000" stroke-width="0.205082" transform="matrix(0.716444 0 0 0.774556 8.977386 -227.11298)"/>
                    <path d="m 67.056357 345.903327 h 9.917685 v 15.810465 h -9.917685 z m 0 0" fill="#9a9996" stroke="#000000" stroke-width="0.205082" transform="matrix(0.716444 0 0 0.774556 8.977386 -227.11298)"/>
                    <path d="m 82.180962 345.837766 h 9.917685 v 15.810464 h -9.917685 z m 0 0" fill="#9a9996" stroke="#000000" stroke-width="0.205082" transform="matrix(0.716444 0 0 0.774556 8.977386 -227.11298)"/>
                    <path d="m 97.060216 345.903327 h 9.912232 v 15.810465 h -9.912232 z m 0 0" fill="#9a9996" stroke="#000000" stroke-width="0.205082" transform="matrix(0.716444 0 0 0.774556 8.977386 -227.11298)"/>
                    <path d="m 112.179369 345.837766 h 9.917684 v 15.810464 h -9.917684 z m 0 0" fill="#9a9996" stroke="#000000" stroke-width="0.205082" transform="matrix(0.716444 0 0 0.774556 8.977386 -227.11298)"/>
                    <path d="m 127.058622 345.903327 h 9.917684 v 15.810465 h -9.917684 z m 0 0" fill="#9a9996" stroke="#000000" stroke-width="0.205082" transform="matrix(0.716444 0 0 0.774556 8.977386 -227.11298)"/>
                </g>
            </g>
        </mask>
        <mask id="i">
            <g filter="url(#a)">
                <rect fill-opacity="0.8" height="128" width="128"/>
            </g>
        </mask>
        <linearGradient id="j" gradientTransform="matrix(0 0.37 -0.98462 0 295.38501 -30.360001)" gradientUnits="userSpaceOnUse" x1="300" x2="428" y1="235" y2="235">
            <stop offset="0" stop-color="#f9f06b"/>
            <stop offset="1" stop-color="#f5c211"/>
        </linearGradient>
        <clipPath id="k">
            <rect height="128" width="128"/>
        </clipPath>
        <clipPath id="l">
            <rect height="128" width="128"/>
        </clipPath>
        <symbol id="m" overflow="visible">
            <path d="m 2.390625 -7.421875 v 7.421875 h -1.984375 v -7.421875 z m 0 0"/>
        </symbol>
        <symbol id="n" overflow="visible">
            <path d="m 0.40625 -7.421875 h 1.484375 c 0.96875 0 1.617187 0.042969 1.953125 0.125 c 0.34375 0.085937 0.601562 0.226563 0.78125 0.421875 c 0.175781 0.199219 0.285156 0.417969 0.328125 0.65625 c 0.050781 0.242188 0.078125 0.710938 0.078125 1.40625 v 2.609375 c 0 0.667969 -0.039062 1.117187 -0.109375 1.34375 c -0.0625 0.21875 -0.179687 0.390625 -0.34375 0.515625 c -0.15625 0.125 -0.355469 0.214844 -0.59375 0.265625 c -0.230469 0.0546875 -0.585937 0.078125 -1.0625 0.078125 h -2.515625 z m 1.984375 1.265625 v 4.890625 c 0.289063 0 0.46875 -0.054687 0.53125 -0.171875 c 0.070313 -0.113281 0.109375 -0.414062 0.109375 -0.90625 v -2.890625 c 0 -0.332031 -0.011719 -0.546875 -0.03125 -0.640625 c -0.023438 -0.09375 -0.074219 -0.160156 -0.15625 -0.203125 c -0.085938 -0.050781 -0.234375 -0.078125 -0.453125 -0.078125 z m 0 0"/>
        </symbol>
    </defs>
    <use mask="url(#b)" transform="matrix(1 0 0 1 -8 -16)" xlink:href="#e"/>
    <path d="m 23.25 22.65625 h 84.855469 c 4.457031 0 8.074219 4.351562 8.074219 9.714844 v 66.023437 c 0 5.367188 -3.617188 9.714844 -8.074219 9.714844 h -84.855469 c -4.460938 0 -8.074219 -4.347656 -8.074219 -9.714844 v -66.023437 c 0 -5.363282 3.613281 -9.714844 8.074219 -9.714844 z m 0 0" fill="#99c1f1" stroke="#000000" stroke-width="1.01441"/>
    <path d="m 28.074219 108.109375 l 51.96875 -85.453125 h 6.699219 l -51.902344 85.453125 z m 0 0" fill="#ffffff" fill-opacity="0.376276"/>
    <path d="m 42.144531 108.109375 l 55.460938 -85.453125 l 11.539062 1.394531 l -48.929687 82.6875 z m 0 0" fill="#ffffff" fill-opacity="0.376276"/>
    <path d="m 20 105.25 c 50.34375 -83.988281 50.34375 -83.988281 50.34375 -83.988281 l 0.773438 2.789062 l -48.929688 82.6875 z m 0 0" fill="#ffffff" fill-opacity="0.376276"/>
    <g stroke="#000000">
        <path d="m 15.199219 37.945312 h 100.953125 v 17.867188 h -100.953125 z m 0 0" fill="#3d3846" stroke-width="0.695606"/>
        <path d="m 21.957031 72.578125 h 50.117188 v 3.65625 h -51.488281 l -0.09375 -3.671875 z m 0 0" stroke-width="1.12456"/>
        <path d="m 21.679688 82.96875 h 40.652343 v 3.65625 h -41.765625 l -0.074218 -3.667969 z m 0 0" stroke-width="1.01284"/>
        <path d="m -157.455129 103.834422 c 0 5.808138 -4.51489 10.516677 -10.080198 10.516677 c -5.565309 0 -10.076379 -4.708539 -10.076379 -10.516677 c 0 -5.812837 4.51107 -10.521376 10.076379 -10.521376 c 5.565308 0 10.080198 4.708539 10.080198 10.521376 z m 0 0" fill="#ffffff" stroke-width="3.34706" transform="matrix(1.022658 0 0 0.831269 267.721938 1.689569)"/>
        <path d="m -180.434467 102.09574 h 2.601218 c 0.122231 0 0.221543 0.479313 0.221543 1.076103 v 1.320459 c 0 0.596791 -0.099312 1.076103 -0.221543 1.076103 h -2.601218 c -0.122231 0 -0.221543 -0.479312 -0.221543 -1.076103 v -1.320459 c 0 -0.59679 0.099312 -1.076103 0.221543 -1.076103 z m 0 0" stroke-width="2.16383" transform="matrix(1.022658 0 0 0.831269 267.721938 1.689569)"/>
        <path d="m -157.966969 102.09574 h 2.601218 c 0.122231 0 0.221543 0.479313 0.221543 1.076103 v 1.320459 c 0 0.596791 -0.099312 1.076103 -0.221543 1.076103 h -2.601218 c -0.122231 0 -0.221543 -0.479312 -0.221543 -1.076103 v -1.320459 c 0 -0.59679 0.099312 -1.076103 0.221543 -1.076103 z m 0 0" stroke-width="2.16383" transform="matrix(1.022658 0 0 0.831269 267.721938 1.689569)"/>
        <path d="m -169.200718 90.371384 h 2.601218 c 0.122231 0 0.221543 0.484012 0.221543 1.076104 v 1.325157 c 0 0.592092 -0.099312 1.071404 -0.221543 1.071404 h -2.601218 c -0.122231 0 -0.221543 -0.479312 -0.221543 -1.071404 v -1.325157 c 0 -0.592092 0.099312 -1.076104 0.221543 -1.076104 z m 0 0" stroke-width="2.16383" transform="matrix(1.022658 0 0 0.831269 267.721938 1.689569)"/>
        <path d="m -169.200718 113.820096 h 2.601218 c 0.122231 0 0.221543 0.479312 0.221543 1.071404 v 1.325158 c 0 0.592092 -0.099312 1.076103 -0.221543 1.076103 h -2.601218 c -0.122231 0 -0.221543 -0.484011 -0.221543 -1.076103 v -1.325158 c 0 -0.592092 0.099312 -1.071404 0.221543 -1.071404 z m 0 0" stroke-width="2.16383" transform="matrix(1.022658 0 0 0.831269 267.721938 1.689569)"/>
        <path d="m -200.42272 -31.33197 l 2.643164 0.002594 c 0.12139 -0.002865 0.221692 0.475279 0.223569 1.058595 l 0.000045 1.306567 c -0.001272 0.581023 -0.099891 1.056906 -0.224429 1.057477 l -2.640016 -0.000301 c -0.124538 0.000571 -0.224359 -0.471517 -0.223568 -1.058596 l -0.000046 -1.306567 c -0.001876 -0.583316 0.099891 -1.056905 0.221281 -1.059769 z m 0 0" stroke-width="2.16471" transform="matrix(0.81817 -0.498714 0.579974 0.68466 267.721938 1.689569)"/>
        <path d="m -82.539024 -197.630587 l 2.643164 0.002595 c 0.12139 -0.002865 0.224359 0.471516 0.223569 1.058595 l 0.002712 1.302804 c -0.003939 0.584786 -0.102558 1.060668 -0.227096 1.061239 l -2.640016 -0.000301 c -0.124538 0.000571 -0.221692 -0.475279 -0.223568 -1.058595 l -0.000045 -1.306567 c 0.00079 -0.587079 0.099891 -1.056905 0.22128 -1.05977 z m 0 0" stroke-width="2.16471" transform="matrix(0.81817 0.498714 0.579974 -0.68466 267.721938 1.689569)"/>
        <path d="m -68.430756 -186.167247 l 2.642683 -0.003462 c 0.121871 0.003192 0.221692 0.475279 0.220901 1.062358 l 0.002713 1.302805 c -0.000791 0.587079 -0.102559 1.060668 -0.223948 1.063532 l -2.643164 -0.002594 c -0.124539 0.000571 -0.221692 -0.475279 -0.223569 -1.058596 l -0.000045 -1.306567 c 0.000791 -0.587079 0.102558 -1.060667 0.224429 -1.057476 z m 0 0" stroke-width="2.16471" transform="matrix(0.81817 0.498714 0.579974 -0.68466 267.721938 1.689569)"/>
        <path d="m -78.627964 -173.432165 l 2.640016 0.000301 c 0.124538 -0.000571 0.224358 0.471517 0.223568 1.058596 l 0.000045 1.306567 c 0.001877 0.583316 -0.099891 1.056905 -0.224429 1.057476 l -2.640016 -0.000301 c -0.124538 0.000571 -0.221691 -0.475279 -0.223568 -1.058596 l -0.000045 -1.306567 c -0.001877 -0.583316 0.099891 -1.056905 0.224429 -1.057476 z m 0 0" stroke-width="2.16471" transform="matrix(0.81817 0.498714 0.579974 -0.68466 267.721938 1.689569)"/>
    </g>
    <g>
        <use x="92.28125" xlink:href="#m" y="91.713514"/>
        <use x="94.999078" xlink:href="#n" y="91.713514"/>
    </g>
    <path d="m 22.18415 345.837766 h 9.912233 v 15.810464 h -9.912233 z m 0 0" fill="#9a9996" stroke="#000000" stroke-width="0.205082" transform="matrix(0.716444 0 0 0.774556 8.977386 -227.11298)"/>
    <path d="m 37.057951 345.903327 h 9.917685 v 15.810465 h -9.917685 z m 0 0" fill="#9a9996" stroke="#000000" stroke-width="0.205082" transform="matrix(0.716444 0 0 0.774556 8.977386 -227.11298)"/>
    <path d="m 52.182556 345.837766 h 9.917685 v 15.810464 h -9.917685 z m 0 0" fill="#9a9996" stroke="#000000" stroke-width="0.205082" transform="matrix(0.716444 0 0 0.774556 8.977386 -227.11298)"/>
    <path d="m 67.056357 345.903327 h 9.917685 v 15.810465 h -9.917685 z m 0 0" fill="#9a9996" stroke="#000000" stroke-width="0.205082" transform="matrix(0.716444 0 0 0.774556 8.977386 -227.11298)"/>
    <path d="m 82.180962 345.837766 h 9.917685 v 15.810464 h -9.917685 z m 0 0" fill="#9a9996" stroke="#000000" stroke-width="0.205082" transform="matrix(0.716444 0 0 0.774556 8.977386 -227.11298)"/>
    <path d="m 97.060216 345.903327 h 9.912232 v 15.810465 h -9.912232 z m 0 0" fill="#9a9996" stroke="#000000" stroke-width="0.205082" transform="matrix(0.716444 0 0 0.774556 8.977386 -227.11298)"/>
    <path d="m 112.179369 345.837766 h 9.917684 v 15.810464 h -9.917684 z m 0 0" fill="#9a9996" stroke="#000000" stroke-width="0.205082" transform="matrix(0.716444 0 0 0.774556 8.977386 -227.11298)"/>
    <path d="m 127.058622 345.903327 h 9.917684 v 15.810465 h -9.917684 z m 0 0" fill="#9a9996" stroke="#000000" stroke-width="0.205082" transform="matrix(0.716444 0 0 0.774556 8.977386 -227.11298)"/>
    <g clip-path="url(#l)" mask="url(#h)">
        <g clip-path="url(#k)" mask="url(#i)">
            <path d="m 128 80.640625 v 47.359375 h -128 v -47.359375 z m 0 0" fill="url(#j)"/>
            <path d="m 13.308594 80.640625 l 47.355468 47.359375 h 21.214844 l -47.359375 -47.359375 z m 42.421875 0 l 47.363281 47.359375 h 21.214844 l -47.363282 -47.359375 z m 42.429687 0 l 29.839844 29.839844 v -21.210938 l -8.628906 -8.628906 z m -98.160156 7.90625 v 21.214844 l 18.238281 18.238281 h 21.214844 z m 0 0"/>
        </g>
    </g>
</svg>
