<?xml version="1.0" encoding="UTF-8"?>
<svg height="16px" viewBox="0 0 16 16" width="16px" xmlns="http://www.w3.org/2000/svg" xmlns:xlink="http://www.w3.org/1999/xlink">
    <filter id="a" height="100%" width="100%" x="0%" y="0%">
        <feColorMatrix in="SourceGraphic" type="matrix" values="0 0 0 0 1 0 0 0 0 1 0 0 0 0 1 0 0 0 1 0"/>
    </filter>
    <mask id="b">
        <g filter="url(#a)">
            <rect fill-opacity="0.9534" height="16" width="16"/>
        </g>
    </mask>
    <clipPath id="c">
        <rect height="152" width="192"/>
    </clipPath>
    <symbol id="d" overflow="visible">
        <path d="m 1.3125 -4.046875 v 4.046875 h -1.09375 v -4.046875 z m 0 0"/>
    </symbol>
    <symbol id="e" overflow="visible">
        <path d="m 0.21875 -4.046875 h 0.8125 c 0.53125 0 0.882812 0.027344 1.0625 0.078125 c 0.1875 0.042969 0.328125 0.117188 0.421875 0.21875 c 0.101563 0.105469 0.164063 0.226562 0.1875 0.359375 c 0.019531 0.125 0.03125 0.382813 0.03125 0.765625 v 1.421875 c 0 0.367187 -0.015625 0.609375 -0.046875 0.734375 c -0.03125 0.117188 -0.09375 0.210938 -0.1875 0.28125 c -0.085938 0.074219 -0.195312 0.125 -0.328125 0.15625 c -0.125 0.0234375 -0.320313 0.03125 -0.578125 0.03125 h -1.375 z m 1.09375 0.6875 v 2.671875 c 0.15625 0 0.25 -0.03125 0.28125 -0.09375 c 0.039062 -0.0625 0.0625 -0.226562 0.0625 -0.5 v -1.578125 c 0 -0.175781 -0.011719 -0.289063 -0.03125 -0.34375 c -0.011719 -0.050781 -0.039062 -0.085937 -0.078125 -0.109375 c -0.042969 -0.03125 -0.121094 -0.046875 -0.234375 -0.046875 z m 0 0"/>
    </symbol>
    <g stroke="#000000">
        <path d="m -157.455774 103.829512 c 0 5.807664 -4.510956 10.522627 -10.077967 10.522627 c -5.56701 0 -10.077967 -4.714963 -10.077967 -10.522627 s 4.510957 -10.514023 10.077967 -10.514023 c 5.567011 0 10.077967 4.706359 10.077967 10.514023 z m 0 0" fill="#ffffff" stroke-width="3.34706" transform="matrix(0.558536 0 0 0.454007 100.62829 -39.674456)"/>
        <path d="m -180.437176 102.091515 h 2.601668 c 0.125887 0 0.2238 0.481821 0.2238 1.075493 v 1.325008 c 0 0.593672 -0.097913 1.075493 -0.2238 1.075493 h -2.601668 c -0.118893 0 -0.216806 -0.481821 -0.216806 -1.075493 v -1.325008 c 0 -0.593672 0.097913 -1.075493 0.216806 -1.075493 z m 0 0" stroke-width="2.16383" transform="matrix(0.558536 0 0 0.454007 100.62829 -39.674456)"/>
        <path d="m -157.966316 102.091515 h 2.601668 c 0.118894 0 0.216806 0.481821 0.216806 1.075493 v 1.325008 c 0 0.593672 -0.097912 1.075493 -0.216806 1.075493 h -2.601668 c -0.125887 0 -0.223799 -0.481821 -0.223799 -1.075493 v -1.325008 c 0 -0.593672 0.097912 -1.075493 0.223799 -1.075493 z m 0 0" stroke-width="2.16383" transform="matrix(0.558536 0 0 0.454007 100.62829 -39.674456)"/>
        <path d="m -169.205243 90.372939 h 2.608662 c 0.118894 0 0.216806 0.481821 0.216806 1.075493 v 1.325008 c 0 0.593672 -0.097912 1.075493 -0.216806 1.075493 h -2.608662 c -0.118893 0 -0.216806 -0.481821 -0.216806 -1.075493 v -1.325008 c 0 -0.593672 0.097913 -1.075493 0.216806 -1.075493 z m 0 0" stroke-width="2.16383" transform="matrix(0.558536 0 0 0.454007 100.62829 -39.674456)"/>
        <path d="m -169.205243 113.818694 h 2.608662 c 0.118894 0 0.216806 0.481821 0.216806 1.075494 v 1.325007 c 0 0.593673 -0.097912 1.075494 -0.216806 1.075494 h -2.608662 c -0.118893 0 -0.216806 -0.481821 -0.216806 -1.075494 v -1.325007 c 0 -0.593673 0.097913 -1.075494 0.216806 -1.075494 z m 0 0" stroke-width="2.16383" transform="matrix(0.558536 0 0 0.454007 100.62829 -39.674456)"/>
        <path d="m -200.42097 -31.333293 l 2.639585 0.000575 c 0.119777 0.003676 0.222453 0.475428 0.225696 1.062785 l 0.000649 1.306267 c -0.002522 0.583158 -0.10081 1.054774 -0.225471 1.057987 l -2.639584 -0.000575 c -0.124661 0.003213 -0.222453 -0.475428 -0.225696 -1.062785 l -0.00065 -1.306267 c 0.002522 -0.583158 0.10081 -1.054774 0.225471 -1.057987 z m 0 0" stroke-width="2.16471" transform="matrix(0.446853 -0.272378 0.316759 0.373935 100.62829 -39.674456)"/>
        <path d="m -82.53665 -197.632789 l 2.639585 0.000574 c 0.124661 -0.003212 0.222453 0.475428 0.225696 1.062786 l 0.000649 1.306266 c -0.002522 0.583159 -0.10081 1.054775 -0.225471 1.057987 l -2.639584 -0.000574 c -0.124661 0.003212 -0.222453 -0.475428 -0.225696 -1.062786 l -0.00065 -1.306266 c 0.002522 -0.583159 0.10081 -1.054775 0.225471 -1.057987 z m 0 0" stroke-width="2.16471" transform="matrix(0.446853 0.272378 0.316759 -0.373935 100.62829 -39.674456)"/>
        <path d="m -68.433049 -186.168686 l 2.639585 0.000575 c 0.130426 0.000986 0.233101 0.472737 0.230579 1.055896 l 0.00065 1.306266 c -0.002523 0.583159 -0.105694 1.061664 -0.225471 1.057987 l -2.644468 0.006315 c -0.119778 -0.003677 -0.222454 -0.475428 -0.225696 -1.062785 l 0.005115 -1.302068 c -0.003243 -0.587357 0.099929 -1.065863 0.219706 -1.062186 z m 0 0" stroke-width="2.16471" transform="matrix(0.446853 0.272378 0.316759 -0.373935 100.62829 -39.674456)"/>
        <path d="m -78.630705 -173.435321 l 2.645349 0.004774 c 0.124661 -0.003213 0.222453 0.475427 0.219931 1.058586 l 0.00065 1.306266 c -0.002523 0.583159 -0.10081 1.054775 -0.225471 1.057987 l -2.639585 -0.000574 c -0.119778 -0.003677 -0.222453 -0.475428 -0.219931 -1.058586 l -0.00065 -1.306267 c -0.003242 -0.587358 0.095045 -1.058974 0.219707 -1.062186 z m 0 0" stroke-width="2.16471" transform="matrix(0.446853 0.272378 0.316759 -0.373935 100.62829 -39.674456)"/>
    </g>
    <g>
        <use x="4.808594" xlink:href="#d" y="9.495316"/>
        <use x="6.292966" xlink:href="#e" y="9.495316"/>
    </g>
    <g clip-path="url(#c)" mask="url(#b)" transform="matrix(1 0 0 1 -168 -16)">
        <path d="m 30.921875 41.285156 h 84.859375 c 4.457031 0 8.089844 4.351563 8.113281 9.714844 l 0.277344 66.023438 c 0.023437 5.367187 -3.574219 9.714843 -8.03125 9.714843 h -84.855469 c -4.460937 0 -8.09375 -4.347656 -8.113281 -9.714843 l -0.28125 -66.023438 c -0.023437 -5.363281 3.574219 -9.714844 8.03125 -9.714844 z m 0 0" fill="#77767b"/>
    </g>
</svg>
